<?xml version="1.0" encoding="UTF-8" standalone="no"?>
<svg
   xmlns:dc="http://purl.org/dc/elements/1.1/"
   xmlns:cc="http://creativecommons.org/ns#"
   xmlns:rdf="http://www.w3.org/1999/02/22-rdf-syntax-ns#"
   xmlns:svg="http://www.w3.org/2000/svg"
   xmlns="http://www.w3.org/2000/svg"
   xmlns:sodipodi="http://sodipodi.sourceforge.net/DTD/sodipodi-0.dtd"
   xmlns:inkscape="http://www.inkscape.org/namespaces/inkscape"
   width="250"
   height="250"
   viewBox="0 0 66.145831 66.145836"
   version="1.1"
   id="svg8"
   inkscape:version="1.0.2-2 (e86c870879, 2021-01-15)"
   sodipodi:docname="enemy.svg">
  <defs
     id="defs2" />
  <sodipodi:namedview
     id="base"
     pagecolor="#ffffff"
     bordercolor="#666666"
     borderopacity="1.0"
     inkscape:pageopacity="0.0"
     inkscape:pageshadow="2"
     inkscape:zoom="1.6083658"
     inkscape:cx="275.07432"
     inkscape:cy="182.32483"
     inkscape:document-units="mm"
     inkscape:current-layer="layer1"
     inkscape:document-rotation="0"
     showgrid="false"
     units="px"
     inkscape:window-width="2560"
     inkscape:window-height="1361"
     inkscape:window-x="-9"
     inkscape:window-y="-9"
     inkscape:window-maximized="1" />
  <metadata
     id="metadata5">
    <rdf:RDF>
      <cc:Work
         rdf:about="">
        <dc:format>image/svg+xml</dc:format>
        <dc:type
           rdf:resource="http://purl.org/dc/dcmitype/StillImage" />
        <dc:title></dc:title>
      </cc:Work>
    </rdf:RDF>
  </metadata>
  <g
     inkscape:label="Layer 1"
     inkscape:groupmode="layer"
     id="layer1">
    <ellipse
       style="fill:#adbec6;stroke-width:0.106914;stroke-linecap:round"
       id="path833"
       cx="33.072918"
       cy="33.542217"
       rx="33.072918"
       ry="32.603683" />
    <path
       style="fill:#adbec6;stroke-width:0.106914;stroke-linecap:round"
       id="path837"
       d="m 15.176353,16.236268 c 0.365829,0.243896 0.727718,0.494029 1.097488,0.731689 0.4599,0.295588 2.299729,1.419302 2.756743,1.740504 1.443528,1.014561 2.797325,2.183116 4.19675,3.259682 0,0 4.22605,-2.721312 4.22605,-2.721312 v 0 c -2.162243,-1.633986 -0.659083,-0.474173 -2.838801,-2.220822 -0.453507,-0.363404 -0.89321,-0.745998 -1.365233,-1.084085 -0.874197,-0.626156 -1.826957,-1.131791 -2.711914,-1.742081 -0.356897,-0.246132 -0.695629,-0.518507 -1.043443,-0.777758 0,0 -4.31764,2.814183 -4.31764,2.814183 z" />
    <path
       style="fill:#adbec6;stroke-width:0.106914;stroke-linecap:round"
       id="path839"
       d="m 41.101689,21.405085 c -0.306166,0.16358 -1.214967,0.67187 -0.918498,0.490734 0.922752,-0.563785 1.871428,-1.082588 2.798329,-1.639274 0.626495,-0.376261 -1.263038,0.734925 -1.89702,1.097958 -1.921563,1.10034 -3.865162,2.15594 -5.810296,3.212148 -2.647042,1.369145 -1.327171,0.710739 -3.958511,1.97749 0,0 -3.870868,3.136124 -3.870868,3.136124 v 0 c 2.648775,-1.257956 1.322566,-0.604931 3.977735,-1.96095 4.884755,-2.640307 9.74595,-5.343782 14.456441,-8.295198 0,0 -4.777312,1.980968 -4.777312,1.980968 z" />
    <path
       style="fill:#adbec6;stroke-width:0.106914;stroke-linecap:round"
       id="path841"
       d="m 16.678765,21.484207 c 2.874376,2.069294 5.645353,4.279818 8.332216,6.594279 0,0 4.159877,-2.643915 4.159877,-2.643915 v 0 c -2.663535,-2.289703 -5.395494,-4.49336 -8.114348,-6.713567 0,0 -4.377745,2.763203 -4.377745,2.763203 z" />
    <path
       style="fill:none;stroke:#000000;stroke-width:0.141234px;stroke-linecap:butt;stroke-linejoin:miter;stroke-opacity:1"
       d="m 12.248167,16.134323 c 0.636829,0.03991 1.350771,-0.0846 1.969353,0.125292 0.760657,0.258109 2.398373,2.064717 2.769405,2.380609 0.59485,0.506444 1.236083,0.95372 1.84627,1.440893 0.436123,0.348201 0.841369,0.737063 1.292389,1.065009 0.269168,0.19571 0.591355,0.306995 0.861593,0.501176 0.0838,0.06021 0.09928,0.192673 0.184627,0.250591 1.181658,0.801918 2.633862,1.247438 4.000251,1.56619 0.447119,0.104304 0.902621,0.167058 1.353931,0.25059 0.225655,0.04174 0.450278,0.08979 0.676965,0.125293 0.04055,0.0064 0.09407,-0.02952 0.123086,0 0.02901,0.02952 -0.02384,0.09131 0,0.125298 0.08431,0.120155 0.217094,0.19793 0.307711,0.313237 0.01097,0.01395 -0.428379,0.09212 -0.55388,0.187939 -0.04068,0.03108 -0.02611,0.265148 -0.06154,0.313243 -0.009,0.01217 -0.345866,0.418123 -0.369254,0.438529 -0.349632,0.305067 -0.306819,0.02903 -0.492338,0.501182 -0.03047,0.07755 0.164113,0 0.246169,0 0.154746,0 0.584644,0.07831 0.738508,0 0.05358,-0.02725 0.01292,-0.525929 -0.06154,-0.563828 -0.385752,-0.196341 -0.762608,-0.417714 -1.169304,-0.563828 -0.455319,-0.16359 -0.969771,-0.124194 -1.415474,-0.313237 -0.189361,-0.08032 -0.308855,-0.282495 -0.492338,-0.375888 -0.290114,-0.14766 -0.613543,-0.21475 -0.923135,-0.313238 -0.628562,-0.199954 -1.268628,-0.410728 -1.907812,-0.563827 -0.160994,-0.03856 -0.342172,0.0079 -0.492339,-0.06265 -0.131706,-0.06188 -0.185333,-0.233959 -0.307712,-0.313237 -0.109459,-0.07091 -0.253208,-0.06623 -0.369254,-0.125292 -0.09174,-0.0467 -0.147063,-0.161043 -0.246169,-0.187945 -0.218935,-0.05943 -0.459937,0.0038 -0.676967,-0.06265 -0.360695,-0.110153 -0.672908,-0.468824 -1.046219,-0.563828 -0.0398,-0.01013 -0.09956,0.0342 -0.123084,0 -0.131528,-0.191272 -0.174403,-0.436493 -0.307712,-0.626479 -0.07635,-0.108807 -0.232385,-0.141046 -0.307711,-0.250585 -0.603664,-0.877862 0.454673,0.122109 -0.430798,-0.689126 -0.0059,-0.0054 -0.400905,-0.340979 -0.492338,-0.375883 -0.09794,-0.03738 -0.226031,0.0038 -0.307711,-0.06265 -0.04805,-0.03915 0.02286,-0.129774 0,-0.187939 -0.02155,-0.05484 -0.100229,-0.07101 -0.123085,-0.125298 -0.0412,-0.09787 0.0038,-0.230088 -0.06154,-0.313237 -0.11024,-0.140271 -0.324915,-0.169526 -0.430796,-0.313237 -0.08961,-0.12162 -0.03744,-0.313986 -0.123085,-0.43853 -0.10598,-0.154122 -0.472501,-0.293046 -0.615423,-0.438535 -0.07253,-0.07383 -0.1121,-0.176758 -0.184627,-0.250591 -0.134437,-0.13685 -0.471253,-0.459124 -0.676966,-0.563827 -0.04657,-0.0237 -0.205039,0.006 -0.24617,0 -0.386862,-0.05626 -0.268103,-0.06903 -0.676964,-0.187939 -0.01972,-0.0058 -0.05237,0.01869 -0.06154,0 -0.02752,-0.05604 0,-0.125298 0,-0.187945"
       id="path847" />
    <path
       style="fill:none;stroke:#000000;stroke-width:0.141234px;stroke-linecap:butt;stroke-linejoin:miter;stroke-opacity:1"
       d="m 53.666153,16.948741 c -1.232998,0 -1.42425,-0.06032 -2.830946,0.313237 -0.364935,0.09691 -0.694719,0.29938 -1.046221,0.438535 -0.387135,0.153255 -0.78875,0.269047 -1.169303,0.43853 -1.392527,0.620173 -2.785663,1.353569 -3.938713,2.380603 -0.240165,0.21392 -0.463479,0.447664 -0.676964,0.689126 -0.156466,0.176974 -0.248154,0.415091 -0.430793,0.563828 -0.136864,0.111456 -0.335572,0.10815 -0.49234,0.187939 -0.260783,0.132735 -0.434375,0.399198 -0.676968,0.563833 -0.152668,0.103604 -0.344376,0.14013 -0.49234,0.250585 -0.506567,0.378156 -0.243514,0.437857 -0.738505,0.563828 -0.397277,0.101105 -0.831297,0.03544 -1.230849,0.187944 -0.283602,0.108263 -0.517984,0.326179 -0.800046,0.438535 -1.093556,0.435595 -0.283321,0.03765 -0.800051,0.125293 -0.446697,0.07579 -0.777078,0.346046 -1.169308,0.563827 -0.09698,0.05386 -0.215791,0.06292 -0.307711,0.125299 -0.03412,0.02316 0.123088,0.04174 0.123088,0 0,-0.04179 -0.164112,0 -0.123088,0 0.184629,0 0.369258,0 0.553881,0 0.225658,0 0.451311,0 0.676969,0 0.80851,0 1.660505,0.08128 2.461693,-0.06265 0.19165,-0.03441 0.360766,-0.16337 0.553881,-0.187939 0.12213,-0.01557 0.248556,0.02456 0.369252,0 0.216654,-0.04411 0.410282,-0.167064 0.615423,-0.250591 0.435142,-0.177184 1.007524,-0.424333 1.353931,-0.751772 0.150324,-0.142096 0.236742,-0.341765 0.369253,-0.501181 0.0937,-0.112723 0.224531,-0.19227 0.307711,-0.313237 0.06336,-0.09213 0.05121,-0.227853 0.123087,-0.313237 0.05971,-0.07091 0.184454,-0.05619 0.24617,-0.125293 0.149261,-0.167139 0.194771,-0.424279 0.369252,-0.563828 0.133019,-0.106388 0.338747,-0.05316 0.49234,-0.125297 0.23853,-0.112066 0.380448,-0.381582 0.615422,-0.501182 0.09356,-0.04761 0.224029,0.0011 0.307711,-0.06265 0.174455,-0.133188 0.271708,-0.349353 0.430799,-0.501181 0.460977,-0.439925 1.035285,-0.743425 1.538555,-1.127656 0.210167,-0.160455 0.376898,-0.38911 0.615428,-0.501176 0.153593,-0.07216 0.341032,-0.04831 0.492334,-0.125298 0.35246,-0.179392 0.570674,-0.572375 0.923139,-0.751767 0.416196,-0.211835 0.575715,-0.08367 0.984674,-0.125298 0.674149,-0.06863 1.378793,-0.353667 2.030895,-0.501181 0.365438,-0.08267 0.752625,-0.06743 1.107767,-0.187939 0.330842,-0.112265 0.601217,-0.364644 0.923134,-0.501182 0.376992,-0.159901 0.559409,-0.02278 0.861592,-0.125298 0.424296,-0.14397 0.09117,-0.125292 0.369252,-0.125292"
       id="path849" />
    <path
       style="fill:none;stroke:#000000;stroke-width:0.141234px;stroke-linecap:butt;stroke-linejoin:miter;stroke-opacity:1"
       d="m 13.294386,25.468803 c 0.85182,0.472971 1.38599,0.659111 2.030897,1.315594 0.03433,0.03495 -0.03041,0.372792 0,0.375889 0.980075,0.09976 1.760239,-0.0027 2.707862,-0.187945 0.06476,-0.01271 1.778574,-0.299314 1.84627,-0.375883 0.187863,-0.212487 0.230972,-0.817483 0.246169,-1.065009 0.01751,-0.285232 0.103017,-0.865491 0,-1.127655 -0.153999,-0.391912 -1.265109,-0.243848 -1.477016,-0.250591 -0.390117,-0.01239 -0.7806,-0.02666 -1.169304,-0.06265 -0.622427,-0.0576 -1.220907,-0.230174 -1.84627,-0.06265 -0.745258,0.199642 -0.47173,0.240099 -1.107761,0.563828 -0.116046,0.05907 -0.253209,0.06623 -0.369255,0.125292 -0.06059,0.03086 0.05784,0.371774 0.06154,0.375889 0.186493,0.207096 0.397038,0.39204 0.615423,0.563828 0.820981,0.645781 1.516408,0.899609 2.33861,0.06265"
       id="path851" />
    <path
       style="fill:none;stroke:#000000;stroke-width:0.141234px;stroke-linecap:butt;stroke-linejoin:miter;stroke-opacity:1"
       d="m 50.896748,23.652022 c -1.130919,0 -1.381105,-0.19339 -2.338612,0.751772 -0.351295,0.346768 -0.560954,0.818333 -0.800045,1.252953 -0.05111,0.0929 -0.145224,0.249347 -0.06155,0.313237 0.24434,0.186544 2.06283,0.454628 2.400153,0.313237 0.263523,-0.110461 0.54995,-0.220996 0.73851,-0.438535 0.162185,-0.187109 0.524793,-1.861186 0.430793,-2.00472 -0.1609,-0.245684 -1.044538,-0.375883 -1.353932,-0.375883"
       id="path853" />
    <path
       style="fill:none;stroke:#000000;stroke-width:0.141234px;stroke-linecap:butt;stroke-linejoin:miter;stroke-opacity:1"
       d="m 13.602097,44.325707 c 0.624857,0.8481 0.194695,0.244946 0.984677,1.440892 1.769695,2.679116 1.477628,2.005964 2.584779,4.26003 0.128973,0.262575 -0.101975,0.956364 0,1.252949 0.112176,0.326259 0.311565,0.616058 0.430796,0.939711 0.168617,0.457724 0.117347,1.072866 0.492338,1.378246 0.03582,0.02919 0.07957,-0.04788 0.123085,-0.06265 0.04703,-0.01594 0.134697,0 0.184627,0 0.389769,0 0.779603,-0.0074 1.169305,0 3.031739,0.05715 1.198255,0.0027 3.877166,0.250591 0.327516,0.03032 0.659941,0.0098 0.984678,0.06265 0.192169,0.03129 0.361222,0.159928 0.553879,0.187945 0.243696,0.03544 0.492996,-0.01831 0.738509,0 1.501256,0.111823 2.8104,0.321585 4.307964,0.626474 1.815326,0.369587 3.594306,0.915836 5.415722,1.252953 0.548305,0.101477 1.110227,0.105796 1.661643,0.187939 0.290622,0.0433 0.574398,0.125298 0.861592,0.187944 0.59491,0.104413 1.187286,0.225095 1.78473,0.313237 0.818399,0.120737 1.641126,0.208825 2.461694,0.313237 1.025704,0.146179 2.052248,0.28639 3.077116,0.438536 0.944518,0.140216 1.883804,0.318013 2.830946,0.438529 0.530814,0.06754 1.066426,0.08783 1.600102,0.125298 0.06139,0.0043 0.13342,0.03474 0.184623,0 0.03412,-0.02316 0,-0.08353 0,-0.125298 0,-0.681225 -0.341709,-1.185341 -0.676963,-1.754129 -0.24617,-0.41765 -0.534782,-0.812248 -0.73851,-1.252948 -0.334905,-0.724456 -0.15863,-1.620667 -0.123082,-2.380609 0.05016,-1.071806 0.109565,-1.573795 0.369252,-2.631194 0.02471,-0.100524 0.331477,-1.494152 0.430799,-1.75413 0.732388,-1.917116 -0.293395,1.392303 0.430793,-1.065008 0.123088,-0.41765 0.294818,-0.823548 0.369258,-1.252949 0.02852,-0.164521 -0.116046,-0.383051 0,-0.501181 0.148001,-0.150665 0.391605,-0.08541 0.553881,-0.25059 0.07252,-0.07383 -0.205406,-0.0074 -0.307717,0 -0.205638,0.01497 -0.41326,0.02149 -0.615422,0.06265 -0.668678,0.136139 -1.294978,0.460853 -1.969354,0.563827 -1.331584,0.203326 -2.725873,0.01433 -4.06179,0.187945 -0.498863,0.06483 -0.980357,0.232802 -1.477019,0.313237 -0.999801,0.161915 -2.064507,0.215066 -3.077116,0.187939 -0.843488,-0.02262 -2.127784,-0.09272 -2.954029,-0.187939 -0.576546,-0.06644 -1.145627,-0.194057 -1.723189,-0.250591 -0.490504,-0.04799 -0.985547,-0.02628 -1.477014,-0.06265 -0.637225,-0.04718 -1.27027,-0.145387 -1.907813,-0.187945 -0.818997,-0.05467 -2.512994,-0.08378 -3.384827,-0.06265 -0.928562,0.02251 -1.838367,0.09322 -2.769406,0.06265 -1.019955,-0.0335 -2.061774,-0.08102 -3.077116,-0.187944 -0.288572,-0.03038 -0.572569,-0.09971 -0.861592,-0.125293 -0.183933,-0.01627 -0.369663,0.0125 -0.553881,0 -0.124506,-0.0085 -0.246169,-0.04179 -0.369253,-0.06265 -0.1436,-0.02089 -0.286024,-0.05343 -0.430798,-0.06265 -0.184267,-0.01174 -0.371109,0.0266 -0.55388,0 -0.101502,-0.01476 -0.826901,-0.179279 -1.046219,-0.313238 -0.01759,-0.01077 0,-0.04174 0,-0.06265 -0.123085,-0.06265 -0.23575,-0.153966 -0.369254,-0.187944 -0.166947,-0.04249 -1.872325,-0.09877 -1.907813,-0.06265 -0.196478,0.200009 0.160064,0.125299 -0.307711,0.125299 -0.308785,0 -0.54982,0.01357 -0.861593,-0.125299 -0.161674,-0.072 -0.296811,-0.19633 -0.430796,-0.313237 -0.01558,-0.01357 0.01835,-0.05332 0,-0.06265 -0.0367,-0.01869 -0.123085,-0.04179 -0.123085,0 0,0.04174 0.08206,0 0.123085,0"
       id="path855" />
    <path
       style="fill:none;stroke:#000000;stroke-width:0.141234px;stroke-linecap:butt;stroke-linejoin:miter;stroke-opacity:1"
       d="m 22.894989,46.643664 c 0.227095,1.925421 0.824889,3.768683 1.292388,5.638276 0.364218,1.456549 -0.144835,1.252948 0.984678,1.252948"
       id="path857" />
    <path
       style="fill:none;stroke:#000000;stroke-width:0.141234px;stroke-linecap:butt;stroke-linejoin:miter;stroke-opacity:1"
       d="m 27.510664,45.516008 c 2.18459,1.328154 2.041393,5.713709 2.153978,7.642997 0.03772,0.646218 -0.192813,1.325186 0,1.942074 0.07092,0.226888 0.260164,-0.400986 0.430799,-0.563828 0.161879,-0.154489 0.369252,-0.250591 0.553881,-0.375888"
       id="path859" />
    <path
       style="fill:none;stroke:#000000;stroke-width:0.141234px;stroke-linecap:butt;stroke-linejoin:miter;stroke-opacity:1"
       d="m 34.403407,46.142482 c 0,0.710006 -0.08393,1.425166 0,2.130018 0.09196,0.772335 1.096085,4.060653 1.230844,4.573268 0.143599,0.626474 0.287199,1.252948 0.430798,1.879422 0,-0.154822 -0.02899,-0.09576 0.06154,-0.187939"
       id="path861" />
    <path
       style="fill:none;stroke:#000000;stroke-width:0.141234px;stroke-linecap:butt;stroke-linejoin:miter;stroke-opacity:1"
       d="m 39.142165,45.891891 c 0.904531,1.84155 1.54182,3.034804 2.030895,5.450333 0.248599,1.22784 0.09069,2.505643 0.123083,3.758855 0.0086,0.334004 0.05872,0.673626 0,1.002357 -0.01974,0.110644 -0.08205,-0.208825 -0.123083,-0.313237 -0.164111,-0.417649 -0.378479,-0.818318 -0.492339,-1.252948 -0.08725,-0.333072 0,-1.342377 0,-1.754129"
       id="path863" />
    <path
       style="fill:none;stroke:#000000;stroke-width:0.141234px;stroke-linecap:butt;stroke-linejoin:miter;stroke-opacity:1"
       d="m 43.511667,46.330427 c 1.388051,2.535075 1.238933,5.595131 1.169303,8.394763 -0.12503,1.336388 -0.123083,0.875083 -0.123083,1.378246"
       id="path865" />
    <path
       style="fill:none;stroke:#000000;stroke-width:0.141234px;stroke-linecap:butt;stroke-linejoin:miter;stroke-opacity:1"
       d="m 35.818874,31.921498 c 0.297188,0.306429 1.363127,0.469389 1.72319,0.626474 0.304034,0.132639 0.565732,0.350592 0.861592,0.501181 0.151302,0.07701 0.372723,0.0038 0.492339,0.125293 0.138352,0.140841 -0.114432,1.236802 -0.123087,1.252953 -0.15344,0.286363 -0.420048,0.493216 -0.615422,0.751767 -0.658399,0.871291 -0.523063,0.91317 -1.353932,1.628837 -0.925795,0.797431 -1.846055,1.355163 -2.584776,2.380603 -2.064507,2.865794 0.68418,-0.445876 -0.98468,1.252953 -0.04106,0.04179 0.123088,-0.06623 0.123088,-0.125298"
       id="path871" />
    <path
       style="fill:none;stroke:#ff0000;stroke-width:0.141234px;stroke-linecap:butt;stroke-linejoin:miter;stroke-opacity:1"
       d="M 6.893984,3.7301134 C 5.185301,16.063813 5.787149,9.7287144 5.293884,18.01375 c -0.0074,0.125061 -0.02268,-0.25274 0,-0.375889 C 5.39476,17.090191 5.52151,16.54727 5.663137,16.009025 6.137045,14.208002 6.634666,12.413448 7.140154,10.621338 7.824509,8.1950914 8.595986,5.7939094 9.232593,3.3542304 c 0.0632,-0.242194 -0.110091,-0.975908 0,-0.751772 1.514288,3.082962 -4.089113,-2.49827498 2.092438,3.508264 0.277549,0.269689 1.883462,0.02036 1.969355,0.125293 0.304784,0.372307 1.082146,2.259054 1.477016,1.879422 1.722138,-1.655668 2.158902,-2.320359 3.44637,-4.260025 0.547919,-0.825486 1.004643,-1.715272 1.6001,-2.505902 0.353028,-0.46874298 0.801514,-0.85563998 1.230847,-1.25295298 0.03036,-0.02812 0.113134,-0.0405 0.123085,0 0.202957,0.826407 0.304173,1.67587498 0.492339,2.50590098 0.190189,0.838961 0.01734,1.897076 0.615423,2.505902 0.246169,0.25059 0.510503,-0.483964 0.738508,-0.751773 0.970689,-1.140139 0.985002,-1.225346 2.215524,-2.130012 0.31378,-0.230691 0.599206,-0.662149 0.984676,-0.626474 0.416966,0.03856 0.513146,1.778542 1.107763,1.879422 0.478472,0.08118 1.097986,-0.637784 1.353931,-0.751772 0.346545,-0.154333 0.734648,-0.187288 1.107762,-0.250585 0.12141,-0.02063 0.263709,-0.06447 0.369252,0 0.636643,0.388841 1.260298,3.397566 2.215524,3.132375 1.790005,-0.496948 3.162529,-1.547012 4.8003,-2.380609 0.838424,-0.426735 1.706053,-0.795407 2.584781,-1.127655 0.374199,-0.141482 2.415321,-0.851036 3.077116,-0.626475 0.209606,0.07112 0.398769,0.206483 0.615422,0.250591 0.563241,0.114673 1.148792,0 1.723184,0 0.784333,0 2.098389,-0.373869 2.830946,-0.125292 0.17118,0.05808 -0.0696,2.402211 0,2.756486 0.008,0.04093 0.08206,0 0.123088,0 0.24617,0 0.507159,0.08564 0.73851,0 0.246889,-0.09139 0.399425,-0.348954 0.615422,-0.501175 1.312019,-0.924637 0.846783,-0.751773 2.215524,-0.751773 0.04106,0 0.100327,-0.03474 0.123082,0 0.497699,0.759953 -0.220722,4.687719 0.123088,5.387687 0.01836,0.03738 0.08226,0.0043 0.123082,0 0.369681,-0.03765 0.76281,0.01519 1.107762,-0.125293 0.496683,-0.202243 0.868226,-0.648873 1.353932,-0.87707 0.589006,-0.276728 1.251039,-0.363911 1.846266,-0.626474 0.497895,-0.219628 3.507772,-2.19281 4.184883,-1.503539 0.243043,0.247408 0.668826,2.815525 0.738505,3.382966 0.02545,0.207209 -0.07619,0.432584 0,0.626474 0.01561,0.03969 0.663255,-0.06464 1.107762,0 0.04063,0.0059 0,0.08353 0,0.125293 0,0.7935376 0,1.5870706 0,2.3806086 0,0.835298 0.07008,1.673651 0,2.505901 -0.0674,0.800432 -0.560659,1.601224 -0.369253,2.380604 0.06675,0.271804 0.49689,-0.241726 0.73851,-0.375884 2.120207,-1.177247 1.3529,-0.939452 2.584776,-1.252953"
       id="path873" />
  </g>
</svg>
